<!DOCTYPE svg PUBLIC "-//W3C//DTD SVG 1.1//EN" "http://www.w3.org/Graphics/SVG/1.1/DTD/svg11.dtd">
<!-- Uploaded to: SVG Repo, www.svgrepo.com, Transformed by: SVG Repo Mixer Tools -->
<svg width="256px" height="256px" viewBox="-40 -40 480.00 480.00" fill="none" xmlns="http://www.w3.org/2000/svg" transform="rotate(0)">
<g id="SVGRepo_bgCarrier" stroke-width="0">
<path transform="translate(-40, -40), scale(15)" d="M16,31.38250898818175C18.40120753285509,31.701584239617826,20.245429403678887,29.202416150512,22.13125518993486,27.68213073789664C23.759796205167177,26.369259120938356,24.823194227866423,24.59705425393249,26.279577915129657,23.09548032089352C28.035049016357938,21.285538566628897,30.92574515028685,20.32023355357728,31.62203698816569,17.89685871307459C32.309759972166624,15.503306920567,30.957678383940415,12.974734573158393,29.824716395654363,10.756976646954913C28.757875449213103,8.668649775064166,27.101556517193327,7.0032150321910125,25.29381584307621,5.509450531338462C23.528266940958602,4.050549754106951,21.61006092348135,2.7999073588734134,19.41285722298137,2.1534939446526042C17.160993383515994,1.4909996149288915,14.671451830898825,0.8859527105645242,12.485540883082894,1.7412788569123805C10.327767732102828,2.585594951200073,9.5362349262682,5.210527223615273,7.76933078896694,6.70949500437354C5.954452716395663,8.249161871045871,2.8185583721943708,8.455625008341377,1.956235302011315,10.673902583681915C1.0954837147179792,12.888137607715603,2.732145169357998,15.286563392075763,3.571126841179302,17.509138428161922C4.26886297537791,19.357535080592477,5.200809825300502,21.06173970744063,6.454012936048201,22.58911911704886C7.638973063844634,24.033325315454462,9.294184479218966,24.893221329188513,10.668194855265213,26.158905940178844C12.52515965310435,27.869469272705423,13.497252764763829,31.049941022923697,16,31.38250898818175" fill="#ffffff" strokewidth="0"/>
</g>
<g id="SVGRepo_tracerCarrier" stroke-linecap="round" stroke-linejoin="round"/>
<g id="SVGRepo_iconCarrier"> <path d="M150.243 218.603C86.6671 220.41 70.9373 198.711 43.4824 147.724C40.7749 142.696 12.3629 111.936 19.0026 105.296C24.9377 99.3613 40.2535 107.607 45.9031 109.78C83.8311 124.368 146.966 162.058 168.176 197.409" stroke="#000000" stroke-opacity="0.9" stroke-width="16" stroke-linecap="round" stroke-linejoin="round"/> <path d="M222.793 189.665C313.618 91.1974 377.253 95.9327 381.871 99.3969C384.59 101.436 360.742 137.439 358.924 140.348C332.388 182.805 316.866 192.525 271.288 210.056C264.101 212.819 231.628 215.888 225.402 211.218" stroke="#000000" stroke-opacity="0.9" stroke-width="16" stroke-linecap="round" stroke-linejoin="round"/> <path d="M140.461 227.162C113.656 227.613 48.6776 273.949 59.353 283C102.319 319.429 143.029 292.445 159.105 275.963" stroke="#000000" stroke-opacity="0.9" stroke-width="16" stroke-linecap="round" stroke-linejoin="round"/> <path d="M235.02 222.679C247.769 226.189 259.671 230.604 271.295 236.944C304.368 254.28 327.387 271.184 323.872 280.555C322.179 285.07 314.69 287.705 310.83 289.521C285.853 301.276 233.834 289.199 221.57 260.583" stroke="#000000" stroke-opacity="0.9" stroke-width="16" stroke-linecap="round" stroke-linejoin="round"/> <path d="M183.782 211.218C178.837 216.976 173.474 214.697 171.453 207.962C163.074 180.03 197.04 180.901 210.289 194.15C218.075 201.936 210.777 222.678 198.914 213.974" stroke="#000000" stroke-opacity="0.9" stroke-width="16" stroke-linecap="round" stroke-linejoin="round"/> <path d="M171.453 197.562C178.695 196.219 184.132 191.086 185.915 184.4" stroke="#000000" stroke-opacity="0.9" stroke-width="16" stroke-linecap="round" stroke-linejoin="round"/> <path d="M201.353 190.25C199.821 196.882 205.356 198.952 210.777 199.675" stroke="#000000" stroke-opacity="0.9" stroke-width="16" stroke-linecap="round" stroke-linejoin="round"/> <path d="M183.781 211.218C187.366 195.806 200.77 204.07 198.913 213.974" stroke="#000000" stroke-opacity="0.9" stroke-width="16" stroke-linecap="round" stroke-linejoin="round"/> <path d="M169.829 226.973C166.62 215.929 161.789 224.432 159.105 230.873" stroke="#000000" stroke-opacity="0.9" stroke-width="16" stroke-linecap="round" stroke-linejoin="round"/> <path d="M216.141 228.111C221.724 217.15 224.248 220.984 228.165 230.386" stroke="#000000" stroke-opacity="0.9" stroke-width="16" stroke-linecap="round" stroke-linejoin="round"/> <path d="M169.343 240.785C163.975 235.49 161.049 245.193 159.594 249.559" stroke="#000000" stroke-opacity="0.9" stroke-width="16" stroke-linecap="round" stroke-linejoin="round"/> <path d="M175.841 253.459C171.591 251.341 169.429 261.554 169.666 266.296" stroke="#000000" stroke-opacity="0.9" stroke-width="16" stroke-linecap="round" stroke-linejoin="round"/> <path d="M215.488 242.085C221.525 235.879 221.858 239.623 225.4 245.822" stroke="#000000" stroke-opacity="0.9" stroke-width="16" stroke-linecap="round" stroke-linejoin="round"/> <path d="M216 255C218.999 256.806 218.429 258.001 216.487 260.525" stroke="#000000" stroke-opacity="0.9" stroke-width="16" stroke-linecap="round" stroke-linejoin="round"/> <path d="M181.205 257.035C180.528 267.375 186.132 277.153 188.841 285.959" stroke="#000000" stroke-opacity="0.9" stroke-width="16" stroke-linecap="round" stroke-linejoin="round"/> <path d="M205.254 251.834C207.151 265.021 200.5 279.537 192.742 288.07" stroke="#000000" stroke-opacity="0.9" stroke-width="16" stroke-linecap="round" stroke-linejoin="round"/> <path d="M172.105 175.139C178.496 175.299 182.787 179.273 186.892 183.751" stroke="#000000" stroke-opacity="0.9" stroke-width="16" stroke-linecap="round" stroke-linejoin="round"/> <path d="M212.24 174.976C208.649 171.678 201.05 180.771 199.078 185.7" stroke="#000000" stroke-opacity="0.9" stroke-width="16" stroke-linecap="round" stroke-linejoin="round"/> <path d="M37.3612 130.02C33.0001 110.9 69.5265 123.325 71.807 134.728C74.8497 149.94 51.9334 142.858 46.2825 137.207" stroke="#000000" stroke-opacity="0.5" stroke-width="16" stroke-linecap="round" stroke-linejoin="round"/> <path d="M322.384 134.127C325.04 129.464 329.343 127.048 334.011 124.825C381.308 102.303 329.961 167.504 318.023 139.65" stroke="#000000" stroke-opacity="0.5" stroke-width="16" stroke-linecap="round" stroke-linejoin="round"/> <path d="M132.273 252.495C154.104 228.586 153.812 281.301 133.726 261.216" stroke="#000000" stroke-opacity="0.5" stroke-width="16" stroke-linecap="round" stroke-linejoin="round"/> <path d="M245.932 246.682C262.079 249.866 246.503 273.601 240.699 262.96" stroke="#000000" stroke-opacity="0.5" stroke-width="16" stroke-linecap="round" stroke-linejoin="round"/> <path d="M99.4227 253.175C95.9362 255.553 78.2562 276.281 85.7791 280.983C92.3647 285.099 105.467 273.326 109.935 274.815C114.85 276.454 111.708 293.322 122.1 287.087" stroke="#000000" stroke-opacity="0.5" stroke-width="16" stroke-linecap="round" stroke-linejoin="round"/> <path d="M257.852 281.273C262.498 284.157 270.224 284.349 273.84 279.529C276.06 276.567 274.104 264.891 275.002 268.483C277.502 278.484 314.895 285.958 287.082 257.521" stroke="#000000" stroke-opacity="0.5" stroke-width="16" stroke-linecap="round" stroke-linejoin="round"/> <path d="M141.698 173.148C136.476 187.966 143.362 200.915 148.316 212.803" stroke="#000000" stroke-opacity="0.5" stroke-width="16" stroke-linecap="round" stroke-linejoin="round"/> <path d="M128.784 164.649C126.087 174.616 127.336 187.967 133.7 197.953" stroke="#000000" stroke-opacity="0.5" stroke-width="16" stroke-linecap="round" stroke-linejoin="round"/> <path d="M239.246 176.276C246.053 186.08 239.526 201.608 233.883 211.484" stroke="#000000" stroke-opacity="0.5" stroke-width="16" stroke-linecap="round" stroke-linejoin="round"/> <path d="M256.567 161.287C259.594 168.751 257.187 179.718 254.652 187.322" stroke="#000000" stroke-opacity="0.5" stroke-width="16" stroke-linecap="round" stroke-linejoin="round"/> <path d="M190.554 288.07C190.947 291.493 191.081 294.956 190.27 298.205" stroke="#000000" stroke-opacity="0.9" stroke-width="16" stroke-linecap="round" stroke-linejoin="round"/> <path d="M253.048 230.386C249.552 232.174 237.793 238.902 230.957 238.902" stroke="#000000" stroke-opacity="0.5" stroke-width="16" stroke-linecap="round" stroke-linejoin="round"/> <path d="M140.459 227.162C139.744 233.76 143.693 238.785 148.314 240.765" stroke="#000000" stroke-opacity="0.5" stroke-width="16" stroke-linecap="round" stroke-linejoin="round"/> <path d="M177.4 222.396C175.581 231.466 176.615 243.415 179.737 252.779" stroke="#000000" stroke-opacity="0.9" stroke-width="16" stroke-linecap="round" stroke-linejoin="round"/> <path d="M207.914 223.046C211.497 230.759 210.752 238.504 207.719 245.898" stroke="#000000" stroke-opacity="0.9" stroke-width="16" stroke-linecap="round" stroke-linejoin="round"/> <path d="M185 249.524C194.063 243.875 196.359 249.747 205.74 247.871" stroke="#000000" stroke-opacity="0.9" stroke-width="16" stroke-linecap="round" stroke-linejoin="round"/> </g>
</svg>