<!DOCTYPE svg PUBLIC "-//W3C//DTD SVG 1.1//EN" "http://www.w3.org/Graphics/SVG/1.1/DTD/svg11.dtd">
<!-- Uploaded to: SVG Repo, www.svgrepo.com, Transformed by: SVG Repo Mixer Tools -->
<svg width="256px" height="256px" viewBox="-40 -40 480.00 480.00" fill="none" xmlns="http://www.w3.org/2000/svg">
<g id="SVGRepo_bgCarrier" stroke-width="0">
<path transform="translate(-40, -40), scale(15)" d="M16,28.35314006730914C19.63480742028519,27.935290134807218,22.62753339215024,25.953178019049446,25.1061080140979,23.26187881753187C27.9108098415022,20.216462423065334,31.220208054303548,16.77127013182453,30.40461856331278,12.712239811844643C29.576074615063572,8.588737676850288,25.181459846775176,6.628137667827878,21.395673621974883,4.795768275048205C17.59626579654197,2.9568058517597358,13.174826221566287,0.44662930868246287,9.557471408815527,2.6219515323764053C6.0640770275665545,4.722729262797522,7.387768346020822,9.853826907244574,6.405618798634027,13.810145099976687C5.376938303171238,17.953900365696246,1.4752035005859505,22.144314236240668,3.8263590797628204,25.708154679699046C6.232226629184904,29.354926569305896,11.659701501544173,28.85209179292097,16,28.35314006730914" fill="#FFFFFF" strokewidth="0"/>
</g>
<g id="SVGRepo_tracerCarrier" stroke-linecap="round" stroke-linejoin="round"/>
<g id="SVGRepo_iconCarrier"> <path d="M192.369 286.7C108.006 254.65 135.171 179.453 161.579 109.322C163.416 104.448 182.065 58.1951 193.101 66.9873C210.429 80.7905 187.115 164.966 182.107 181.587" stroke="#000000" stroke-opacity="0.9" stroke-width="16" stroke-linecap="round" stroke-linejoin="round"/> <path d="M171.811 183.589C214.587 175.783 229.069 215.072 179.09 215.072C175.833 215.072 185.789 216.907 187.823 219.466C191.792 224.457 189.849 232.046 189.28 237.768" stroke="#000000" stroke-opacity="0.9" stroke-width="16" stroke-linecap="round" stroke-linejoin="round"/> <path d="M204.43 170.583C238.059 25.3762 263.197 225.888 216.292 200.359" stroke="#000000" stroke-opacity="0.9" stroke-width="16" stroke-linecap="round" stroke-linejoin="round"/> <path d="M247.088 127.321C282.148 93.7269 287.494 206.944 250.71 203.829" stroke="#000000" stroke-opacity="0.9" stroke-width="16" stroke-linecap="round" stroke-linejoin="round"/> <path d="M167.417 84.3771C107.845 47.6044 120.238 86.3084 141.946 113.556" stroke="#000000" stroke-opacity="0.9" stroke-width="16" stroke-linecap="round" stroke-linejoin="round"/> <path d="M270.628 210.166C282.72 250.353 253.156 268.426 232.083 294.479C227.137 300.593 231.119 323.791 229.863 331.868" stroke="#000000" stroke-opacity="0.9" stroke-width="16" stroke-linecap="round" stroke-linejoin="round"/> <path d="M169.303 290.464C165.545 304.303 164.083 318.905 163.029 333.122" stroke="#000000" stroke-opacity="0.9" stroke-width="16" stroke-linecap="round" stroke-linejoin="round"/> <path d="M200.666 104.774C209.449 111.047 214.227 114.199 218.231 117.32" stroke="#000000" stroke-opacity="0.9" stroke-width="16" stroke-linecap="round" stroke-linejoin="round"/> </g>
</svg>