<!DOCTYPE svg PUBLIC "-//W3C//DTD SVG 1.1//EN" "http://www.w3.org/Graphics/SVG/1.1/DTD/svg11.dtd">
<!-- Uploaded to: SVG Repo, www.svgrepo.com, Transformed by: SVG Repo Mixer Tools -->
<svg width="256px" height="256px" viewBox="-40 -40 480.00 480.00" fill="none" xmlns="http://www.w3.org/2000/svg">
<g id="SVGRepo_bgCarrier" stroke-width="0">
<path transform="translate(-40, -40), scale(15)" d="M16,25.616416035767863C18.147762217201482,25.731879717674342,19.9922918236343,28.139736834203187,22.059309240939747,27.54504918506833C24.033315938342675,26.977121023250845,24.43017770710191,24.287624517740802,25.833204548570993,22.787371032327655C27.509297437125323,20.995128629255113,30.544183948986188,20.219103130383246,31.137277192196187,17.837998217261553C31.71667871183142,15.51186177772512,29.816187115039543,13.308635262806458,28.72598201688275,11.173671633081634C27.724892538672584,9.213224346885287,27.01958136967691,6.724929907249211,25.007066913659777,5.833123162679637C22.928479685398305,4.9120375506993295,20.548083418337328,7.043686559846245,18.32553907556166,6.564917080362928C16.20242892856104,6.1075672221838175,14.973138892482869,2.763646102118389,12.848532042278263,3.2139918816446507C10.75525279419321,3.657697254548925,11.10480700273533,7.275677505154212,9.33040642954785,8.471585141336702C7.14479563374146,9.944639580071705,3.4995507502629026,8.580714514076998,1.8434980090290356,10.63114696809106C0.33766109226229224,12.495590537859574,1.4454540543534775,15.356633922204571,1.8636896401372915,17.716458839339907C2.266819649119941,19.991053045041912,2.6753476947950006,22.416603661876877,4.234367224926951,24.121229928664597C5.752951871101378,25.781644840843647,8.041063562949784,26.62776342550277,10.273239673396393,26.911430166829128C12.243368803075835,27.161795766385914,14.016889915854254,25.50980405139294,16,25.616416035767863" fill="#ffffff" strokewidth="0"/>
</g>
<g id="SVGRepo_tracerCarrier" stroke-linecap="round" stroke-linejoin="round"/>
<g id="SVGRepo_iconCarrier"> <path d="M91.8008 173.488C121.583 4.36372 386.971 108.47 286.338 269.574C237.557 347.669 89.118 315.006 96.758 215.641" stroke="#000000" stroke-opacity="0.9" stroke-width="16" stroke-linecap="round" stroke-linejoin="round"/> <path d="M153.553 218.554C141.875 187.775 142.054 154.99 174.044 136.745C231.338 104.067 280.024 195.525 235.517 235.91C227.522 243.166 213.55 245.789 203.85 241.485C146.237 215.927 215.507 132.356 194.535 216.078C191.875 226.705 189.297 237.34 185.844 247.684C182.178 258.652 178.919 269.652 175.286 280.534" stroke="#000000" stroke-opacity="0.9" stroke-width="16" stroke-linecap="round" stroke-linejoin="round"/> </g>
</svg>