<!DOCTYPE svg PUBLIC "-//W3C//DTD SVG 1.1//EN" "http://www.w3.org/Graphics/SVG/1.1/DTD/svg11.dtd">
<!-- Uploaded to: SVG Repo, www.svgrepo.com, Transformed by: SVG Repo Mixer Tools -->
<svg width="256px" height="256px" viewBox="-40 -40 480.00 480.00" fill="none" xmlns="http://www.w3.org/2000/svg" transform="rotate(45)">
<g id="SVGRepo_bgCarrier" stroke-width="0">
<path transform="translate(-40, -40), scale(15)" d="M16,29.018448466900736C18.752609121402397,29.982702674944477,22.15564376079837,30.97124080154275,24.56695092096473,29.33043583681105C26.985749182791835,27.684533455624358,26.748079747456103,24.06891748432559,27.448337012227334,21.22828032992713C28.022060731458318,18.900934374095275,28.36069896314318,16.629095175217675,28.28864313661309,14.233159854304734C28.20811390353274,11.555474465147974,28.53199312396272,8.66531332547038,27.004333926017985,6.464690373754447C25.428009740043063,4.193964555019294,22.688648270505336,3.0289051548352073,20.017342168103536,2.318189043838112C17.39080122737933,1.6193829575240914,14.516534201525651,1.3825222371727133,12.030402085509454,2.4807910390981487C9.658991225929478,3.5283808058870747,8.31775065148731,5.944004259130729,6.898528612733497,8.113530149534018C5.645162914928218,10.029515990565356,4.668216413676591,12.058329912631873,4.288191693540462,14.316096182101088C3.9010348390543026,16.61623520131946,3.4704900933563465,19.17884852682345,4.702676588105815,21.159314729479654C5.911912589652511,23.102893110108866,8.70246715653659,23.12406340285867,10.581550144171079,24.43127255011421C12.56434922714192,25.81063318265991,13.72042748343391,28.21990159929469,16,29.018448466900736" fill="#FFFFFF" strokewidth="0"/>
</g>
<g id="SVGRepo_tracerCarrier" stroke-linecap="round" stroke-linejoin="round"/>
<g id="SVGRepo_iconCarrier"> <path d="M72.4336 193.066C73.6055 177.351 79.087 152.855 85.0459 138.436C127.145 36.5836 347.246 178.391 242.523 261.263C225.56 274.685 192.657 282.179 171.015 273.815C141.434 262.378 102.824 178.677 144.974 158.417C184.232 139.544 229.58 173.915 219.984 215.483C204.326 283.305 123.069 176.428 183.344 197.588M145.303 249.894C218.545 365.441 374.063 242.911 313.654 154.816" stroke="#000000" stroke-opacity="0.9" stroke-width="16" stroke-linecap="round" stroke-linejoin="round"/> </g>
</svg>